HIERARCHY
ROOT Hips
{
	OFFSET -0.001795 -0.223333 0.028219
	CHANNELS 6 Xposition Yposition Zposition Zrotation Yrotation Xrotation
	JOINT LeftUpLeg
	{
		OFFSET 0.069520 -0.091406 -0.006815
		CHANNELS 3 Zrotation Yrotation Xrotation
		JOINT LeftLeg
		{
			OFFSET 0.034277 -0.375199 -0.004496
			CHANNELS 3 Zrotation Yrotation Xrotation
			JOINT LeftFoot
			{
				OFFSET -0.013596 -0.397961 -0.043693
				CHANNELS 3 Zrotation Yrotation Xrotation
				JOINT LeftToe
				{
					OFFSET 0.026358 -0.055791 0.119288
					CHANNELS 3 Zrotation Yrotation Xrotation
					End Site
					{
						OFFSET 0.000000 0.000000 0.000000
					}
				}
			}
		}
	}
	JOINT RightUpLeg
	{
		OFFSET -0.067670 -0.090522 -0.004320
		CHANNELS 3 Zrotation Yrotation Xrotation
		JOINT RightLeg
		{
			OFFSET -0.038290 -0.382569 -0.008850
			CHANNELS 3 Zrotation Yrotation Xrotation
			JOINT RightFoot
			{
				OFFSET 0.015774 -0.398415 -0.042312
				CHANNELS 3 Zrotation Yrotation Xrotation
				JOINT RightToe
				{
					OFFSET -0.025372 -0.048144 0.123348
					CHANNELS 3 Zrotation Yrotation Xrotation
					End Site
					{
						OFFSET 0.000000 0.000000 0.000000
					}
				}
			}
		}
	}
	JOINT Spine
	{
		OFFSET -0.002533 0.108963 -0.026696
		CHANNELS 3 Zrotation Yrotation Xrotation
		JOINT Spine1
		{
			OFFSET 0.005487 0.135180 0.001092
			CHANNELS 3 Zrotation Yrotation Xrotation
			JOINT Spine2
			{
				OFFSET 0.001457 0.052922 0.025425
				CHANNELS 3 Zrotation Yrotation Xrotation
				JOINT Neck
				{
					OFFSET -0.002778 0.213870 -0.042857
					CHANNELS 3 Zrotation Yrotation Xrotation
					JOINT Head
					{
						OFFSET 0.005152 0.064970 0.051349
						CHANNELS 3 Zrotation Yrotation Xrotation
						End Site
						{
							OFFSET 0.000000 0.000000 0.000000
						}
					}
				}
				JOINT LeftShoulder
				{
					OFFSET 0.078845 0.121749 -0.034090
					CHANNELS 3 Zrotation Yrotation Xrotation
					JOINT LeftArm
					{
						OFFSET 0.090977 0.030469 -0.008868
						CHANNELS 3 Zrotation Yrotation Xrotation
						JOINT LeftForeArm
						{
							OFFSET 0.259612 -0.012772 -0.027456
							CHANNELS 3 Zrotation Yrotation Xrotation
							JOINT LeftHand
							{
								OFFSET 0.249234 0.008986 -0.001171
								CHANNELS 3 Zrotation Yrotation Xrotation
								End Site
								{
									OFFSET 0.000000 0.000000 0.000000
								}
							}
						}
					}
				}
				JOINT RightShoulder
				{
					OFFSET -0.081759 0.118833 -0.038615
					CHANNELS 3 Zrotation Yrotation Xrotation
					JOINT RightArm
					{
						OFFSET -0.096012 0.032551 -0.009143
						CHANNELS 3 Zrotation Yrotation Xrotation
						JOINT RightForeArm
						{
							OFFSET -0.253742 -0.013329 -0.021401
							CHANNELS 3 Zrotation Yrotation Xrotation
							JOINT RightHand
							{
								OFFSET -0.255298 0.007772 -0.005559
								CHANNELS 3 Zrotation Yrotation Xrotation
								End Site
								{
									OFFSET 0.000000 0.000000 0.000000
								}
							}
						}
					}
				}
			}
		}
	}
}
MOTION
Frames: 18
Frame Time: 0.050000
0.000000 0.958394 0.000000 -2.791919 9.788237 -1.604017 3.438371 0.322520 10.639341 -1.144909 0.244026 -8.022975 -0.811948 5.128615 13.674724 0.000000 0.000000 0.000000 2.457566 -0.703435 5.116569 0.527933 -0.110114 -1.333034 0.923549 -1.764453 12.063577 0.000000 0.000000 0.000000 -1.400610 -0.043635 1.705583 3.335130 0.050294 -25.934993 -2.424840 -6.157765 29.367293 1.954855 0.200330 -23.811256 0.000000 0.000000 0.000000 -24.929046 3.744807 -3.901666 -55.648238 -2.488353 -8.187550 -11.573363 -21.898990 3.433257 0.000000 0.000000 0.000000 16.232755 -1.126009 -1.174258 64.134669 4.582492 -6.717990 5.602666 24.150068 2.388425 0.000000 0.000000 0.000000
0.000289 0.957280 0.000481 -2.894971 9.765870 -1.021022 3.614832 0.281057 10.097709 -1.318808 0.247818 -8.148127 -0.705325 5.169607 13.369831 0.000000 0.000000 0.000000 1.910166 -0.573311 4.352848 1.330341 -0.201234 -1.240678 1.418073 -0.851611 12.260441 0.000000 0.000000 0.000000 -1.258020 -0.016272 0.759450 2.986324 0.131761 -25.891269 -2.544578 -6.564361 30.093711 2.107555 0.020811 -23.865933 0.000000 0.000000 0.000000 -25.609507 4.804233 -4.505883 -55.292569 -2.581994 -8.194871 -11.418622 -22.195374 3.488274 0.000000 0.000000 0.000000 15.961585 -1.750717 -1.547963 65.617098 4.355012 -7.040962 3.754749 24.907946 2.126881 0.000000 0.000000 0.000000
0.000523 0.956394 0.000752 -2.416118 9.465558 -1.081961 3.394018 0.317238 10.000934 -1.928344 0.259375 -7.584955 -0.556507 5.274102 13.144409 0.000000 0.000000 0.000000 1.612058 -0.609452 4.744392 0.838612 -0.152025 -1.534646 1.490829 -0.556419 11.624199 0.000000 0.000000 0.000000 -1.247914 -0.003015 0.259196 2.650593 0.201736 -25.591102 -2.943901 -6.790955 30.366671 0.984853 0.627272 -23.588232 0.000000 0.000000 0.000000 -24.529383 5.039847 -4.338720 -56.345313 -2.605310 -8.365719 -10.519106 -22.645362 3.418364 0.000000 0.000000 0.000000 16.185595 -1.259638 -1.414496 64.784650 4.163876 -7.111585 4.685680 24.431538 2.215106 0.000000 0.000000 0.000000
0.000703 0.956572 0.001034 -2.550634 9.804818 -1.433282 3.219574 0.346976 10.539515 -1.281137 0.245552 -7.946979 -0.713926 5.084739 13.174227 0.000000 0.000000 0.000000 1.505561 -0.664868 5.199162 1.109890 -0.187804 -1.673955 1.698015 -0.199593 11.944027 0.000000 0.000000 0.000000 -1.333928 0.000704 0.083373 2.838282 0.172311 -26.072365 -3.202018 -6.972431 31.272488 0.999622 0.614607 -23.631494 0.000000 0.000000 0.000000 -24.127746 5.827630 -4.754603 -57.489632 -2.315935 -8.727609 -10.648884 -22.683752 3.483235 0.000000 0.000000 0.000000 15.697968 -1.356422 -1.388221 65.031518 3.917117 -7.360119 5.406726 24.401888 2.373334 0.000000 0.000000 0.000000
0.000767 0.956488 0.001152 -2.484309 10.133352 -1.654234 3.190842 0.345211 10.619623 -1.268099 0.240820 -7.704796 -0.858036 4.852812 13.054650 0.000000 0.000000 0.000000 1.340209 -0.706453 5.571683 1.015328 -0.189338 -2.062773 2.015327 0.283524 12.525467 0.000000 0.000000 0.000000 -1.446619 -0.010050 0.476329 3.282643 0.064505 -25.706817 -3.616577 -6.683964 30.622075 0.889658 0.729715 -22.934197 0.000000 0.000000 0.000000 -23.373861 5.721859 -4.756413 -58.125164 -2.233276 -8.745011 -10.456429 -22.405638 3.365231 0.000000 0.000000 0.000000 16.047450 -1.644415 -1.484416 64.404743 3.752352 -7.295391 5.491673 23.466053 2.278647 0.000000 0.000000 0.000000
0.000826 0.956613 0.001282 -2.546212 10.219998 -1.870827 3.167083 0.350951 10.769238 -1.082592 0.235199 -7.578009 -0.884566 4.807177 13.011588 0.000000 0.000000 0.000000 1.261979 -0.760243 6.006776 1.079445 -0.211188 -2.539751 2.317829 0.719536 13.026736 0.000000 0.000000 0.000000 -1.420152 -0.013431 0.574954 3.179525 0.100927 -26.127705 -3.552447 -6.847136 31.243492 0.558137 0.898946 -22.697285 0.000000 0.000000 0.000000 -23.072573 6.051552 -4.858952 -58.742774 -2.339557 -8.846346 -10.543854 -22.311963 3.390090 0.000000 0.000000 0.000000 15.837281 -1.780001 -1.542846 64.410754 3.436271 -7.543304 5.440242 23.094968 2.227334 0.000000 0.000000 0.000000
0.000825 0.956359 0.001391 -2.501743 10.072271 -1.976278 3.178095 0.358003 10.866745 -1.216584 0.238541 -7.476634 -0.805765 4.882216 12.940299 0.000000 0.000000 0.000000 1.244055 -0.768752 6.086503 0.926557 -0.199550 -2.692828 2.479499 0.878016 13.411614 0.000000 0.000000 0.000000 -1.464257 -0.016549 0.683813 3.276458 0.073081 -26.062337 -3.658555 -6.850205 31.251983 0.648538 0.814436 -22.561846 0.000000 0.000000 0.000000 -22.949873 6.273525 -4.936240 -58.959326 -1.939738 -9.068069 -10.652182 -22.090750 3.384201 0.000000 0.000000 0.000000 15.799334 -1.874484 -1.616508 64.432577 3.000686 -7.781031 5.477421 22.870091 2.201449 0.000000 0.000000 0.000000
0.000836 0.956404 0.001469 -2.489838 9.987885 -2.106463 3.091946 0.373771 10.916465 -1.102264 0.234542 -7.280339 -0.749994 4.945535 12.900764 0.000000 0.000000 0.000000 1.252074 -0.776188 6.144217 0.868141 -0.188235 -2.538798 2.507483 0.932481 13.370607 0.000000 0.000000 0.000000 -1.347647 -0.019183 0.751498 3.241187 0.078214 -26.045593 -3.722488 -6.949228 31.380744 0.634321 0.781670 -22.375392 0.000000 0.000000 0.000000 -23.328214 5.975708 -4.762821 -58.489302 -1.882921 -9.055278 -10.569821 -22.050532 3.362372 0.000000 0.000000 0.000000 15.864235 -1.938415 -1.683077 64.424814 2.817241 -7.906974 5.371058 22.476535 2.131800 0.000000 0.000000 0.000000
0.000835 0.956554 0.001531 -2.445060 9.776888 -2.087732 2.945348 0.397551 10.869149 -0.980396 0.231586 -7.164349 -0.646874 5.099533 12.944849 0.000000 0.000000 0.000000 1.230849 -0.763359 6.066299 0.837489 -0.175625 -2.262208 2.494681 1.014579 12.959233 0.000000 0.000000 0.000000 -1.250661 -0.018071 0.698814 3.298635 0.058613 -25.954935 -3.877140 -6.823632 31.246908 0.843764 0.624908 -22.041509 0.000000 0.000000 0.000000 -23.265055 5.910108 -4.709346 -58.566533 -1.528793 -9.218346 -10.333383 -21.767439 3.266683 0.000000 0.000000 0.000000 15.852214 -2.139218 -1.800592 64.518299 2.353646 -8.144493 5.438989 22.353417 2.126784 0.000000 0.000000 0.000000
0.000790 0.956974 0.001513 -2.408582 9.513980 -2.142697 2.718959 0.437804 10.964464 -0.708066 0.225924 -7.162472 -0.540148 5.296549 13.100708 0.000000 0.000000 0.000000 1.195770 -0.765929 6.113911 0.836401 -0.167911 -2.036760 2.524707 1.170756 12.559027 0.000000 0.000000 0.000000 -1.108162 -0.016650 0.623979 3.119124 0.093824 -25.879785 -3.885198 -6.767410 31.262050 0.747412 0.683190 -22.238811 0.000000 0.000000 0.000000 -23.309742 5.854795 -4.646583 -58.507485 -1.240718 -9.350209 -10.265104 -21.584785 3.225365 0.000000 0.000000 0.000000 15.848071 -2.194956 -1.857669 64.680423 2.144419 -8.276324 5.554496 22.093101 2.111893 0.000000 0.000000 0.000000
0.000674 0.957350 0.001333 -2.402230 9.514088 -2.108341 2.734443 0.433499 10.901191 -0.737929 0.226493 -7.144428 -0.568042 5.297585 13.215666 0.000000 0.000000 0.000000 1.317786 -0.778099 6.151738 0.826325 -0.164856 -1.976906 2.230149 0.724807 12.174489 0.000000 0.000000 0.000000 -1.006920 -0.014346 0.537520 3.150587 0.086371 -25.891952 -4.002801 -6.845744 31.311175 0.723547 0.681712 -22.200614 0.000000 0.000000 0.000000 -23.541437 5.828690 -4.641427 -58.076141 -1.233543 -9.297843 -10.359782 -21.462214 3.220759 0.000000 0.000000 0.000000 15.955027 -2.125145 -1.847003 64.760406 2.049449 -8.343615 5.538071 21.822653 2.074311 0.000000 0.000000 0.000000
0.000471 0.957777 0.001012 -2.413602 9.462131 -2.179375 2.671526 0.445497 10.963759 -0.597935 0.223108 -7.155864 -0.566596 5.344218 13.344837 0.000000 0.000000 0.000000 1.413430 -0.802316 6.294048 1.006823 -0.181633 -1.873656 1.821524 0.065859 11.692277 0.000000 0.000000 0.000000 -0.875903 -0.019063 0.672829 3.127857 0.089832 -25.825982 -3.970459 -6.868937 31.241003 0.847633 0.597517 -22.309405 0.000000 0.000000 0.000000 -23.728292 5.633595 -4.532962 -57.756774 -1.372217 -9.189767 -10.389917 -21.454804 3.221446 0.000000 0.000000 0.000000 16.058472 -1.941869 -1.775143 64.580648 2.350633 -8.162799 5.672857 21.431772 2.044622 0.000000 0.000000 0.000000
0.000230 0.958071 0.000556 -2.411310 9.542834 -2.268868 2.550736 0.462732 11.070127 -0.346407 0.217287 -7.250843 -0.619978 5.308556 13.438917 0.000000 0.000000 0.000000 1.526648 -0.834920 6.483007 1.032834 -0.186136 -1.921339 1.533231 -0.417032 11.434493 0.000000 0.000000 0.000000 -0.880445 -0.027288 0.931117 3.220645 0.074926 -26.010526 -4.027477 -6.876244 31.381953 0.884451 0.588057 -22.470808 0.000000 0.000000 0.000000 -24.011262 5.509921 -4.503748 -57.317776 -1.778238 -8.958768 -10.486188 -21.623329 3.263791 0.000000 0.000000 0.000000 16.102930 -1.591950 -1.579442 64.589348 2.833322 -7.922784 5.897983 21.282290 2.067362 0.000000 0.000000 0.000000
-0.000041 0.958430 -0.000026 -2.398127 9.453656 -2.453238 2.396017 0.486886 11.100124 -0.094227 0.205556 -7.000525 -0.570864 5.391593 13.478575 0.000000 0.000000 0.000000 1.508599 -0.858749 6.674758 1.104545 -0.193405 -1.900084 1.501006 -0.475221 11.365483 0.000000 0.000000 0.000000 -0.879277 -0.038748 1.279043 3.331566 0.048269 -25.956853 -3.972646 -6.656048 31.293755 1.297091 0.352167 -22.528782 0.000000 0.000000 0.000000 -24.311618 5.342669 -4.493194 -56.761217 -2.045820 -8.749471 -10.469012 -21.815565 3.277722 0.000000 0.000000 0.000000 16.438121 -1.211017 -1.373042 64.087764 3.386955 -7.574374 5.945159 20.813557 2.016020 0.000000 0.000000 0.000000
-0.000292 0.958596 -0.000697 -2.372913 9.445003 -2.526368 2.284717 0.502460 11.121017 0.069787 0.199886 -6.970428 -0.568844 5.410090 13.519537 0.000000 0.000000 0.000000 1.502845 -0.865113 6.726588 1.067097 -0.186264 -1.799695 1.520034 -0.372279 11.158719 0.000000 0.000000 0.000000 -0.913414 -0.043873 1.442776 3.380459 0.033568 -25.849373 -3.911088 -6.603167 31.253317 1.308050 0.362938 -22.683324 0.000000 0.000000 0.000000 -24.593655 5.217903 -4.468452 -56.478782 -2.444651 -8.530353 -10.066269 -22.090868 3.238928 0.000000 0.000000 0.000000 16.496420 -0.697268 -1.095845 63.858197 3.976607 -7.243609 6.149648 20.878360 2.054237 0.000000 0.000000 0.000000
-0.000502 0.958714 -0.001388 -2.386227 9.322586 -2.569988 2.194878 0.520991 11.210367 0.234443 0.198306 -7.102068 -0.517299 5.502866 13.593672 0.000000 0.000000 0.000000 1.446098 -0.848227 6.634407 1.096166 -0.183715 -1.608096 1.682043 -0.043981 11.103050 0.000000 0.000000 0.000000 -0.821125 -0.051482 1.639347 3.412268 0.028739 -26.003508 -3.866402 -6.447195 31.452644 1.503821 0.263648 -22.911840 0.000000 0.000000 0.000000 -24.938747 4.985532 -4.386460 -56.009872 -2.833504 -8.316415 -9.678117 -22.109850 3.158765 0.000000 0.000000 0.000000 16.658982 -0.194875 -0.817091 63.295871 4.515067 -6.943573 6.435984 20.926314 2.105602 0.000000 0.000000 0.000000
-0.000613 0.958663 -0.001973 -2.380587 9.246707 -2.679222 2.086682 0.542994 11.351444 0.400917 0.195560 -7.186815 -0.476279 5.560655 13.602382 0.000000 0.000000 0.000000 1.414471 -0.844052 6.623679 1.081527 -0.178349 -1.483682 1.764240 0.102877 11.128051 0.000000 0.000000 0.000000 -0.780230 -0.059988 1.868961 3.590542 -0.021082 -25.778200 -3.931604 -6.450220 31.245655 1.286469 0.409772 -23.107723 0.000000 0.000000 0.000000 -25.294305 4.792304 -4.301050 -55.582202 -2.887512 -8.226175 -9.400612 -22.113103 3.098708 0.000000 0.000000 0.000000 16.767675 0.423212 -0.517142 62.713484 4.939877 -6.663325 6.659034 21.220952 2.166408 0.000000 0.000000 0.000000
-0.000642 0.958745 -0.002349 -2.382807 9.257020 -2.889724 2.041227 0.564229 11.719728 0.494621 0.199963 -7.473666 -0.512740 5.541084 13.698684 0.000000 0.000000 0.000000 1.580331 -0.869167 6.735892 0.906711 -0.154100 -1.343232 1.578868 -0.262185 11.106463 0.000000 0.000000 0.000000 -0.783266 -0.070236 2.156586 3.737116 -0.049842 -25.950224 -4.017912 -6.470239 31.484254 1.291404 0.419033 -23.394829 0.000000 0.000000 0.000000 -25.687892 4.591123 -4.207357 -55.292440 -3.156803 -8.105757 -9.047081 -21.893071 2.995939 0.000000 0.000000 0.000000 16.825402 0.864492 -0.283465 62.380582 5.562116 -6.349559 6.634166 21.405444 2.181912 0.000000 0.000000 0.000000
